%TF.GenerationSoftware,KiCad,Pcbnew,9.0.1*%
%TF.CreationDate,2025-08-04T14:53:58+03:00*%
%TF.ProjectId,SVI-3x8-PicoExpander,5356492d-3378-4382-9d50-69636f457870,1.1*%
%TF.SameCoordinates,Original*%
%TF.FileFunction,Copper,L1,Top*%
%TF.FilePolarity,Positive*%
%FSLAX46Y46*%
G04 Gerber Fmt 4.6, Leading zero omitted, Abs format (unit mm)*
G04 Created by KiCad (PCBNEW 9.0.1) date 2025-08-04 14:53:58*
%MOMM*%
%LPD*%
G01*
G04 APERTURE LIST*
G04 Aperture macros list*
%AMRoundRect*
0 Rectangle with rounded corners*
0 $1 Rounding radius*
0 $2 $3 $4 $5 $6 $7 $8 $9 X,Y pos of 4 corners*
0 Add a 4 corners polygon primitive as box body*
4,1,4,$2,$3,$4,$5,$6,$7,$8,$9,$2,$3,0*
0 Add four circle primitives for the rounded corners*
1,1,$1+$1,$2,$3*
1,1,$1+$1,$4,$5*
1,1,$1+$1,$6,$7*
1,1,$1+$1,$8,$9*
0 Add four rect primitives between the rounded corners*
20,1,$1+$1,$2,$3,$4,$5,0*
20,1,$1+$1,$4,$5,$6,$7,0*
20,1,$1+$1,$6,$7,$8,$9,0*
20,1,$1+$1,$8,$9,$2,$3,0*%
%AMFreePoly0*
4,1,37,0.800000,0.796148,0.878414,0.796148,1.032228,0.765552,1.177117,0.705537,1.307515,0.618408,1.418408,0.507515,1.505537,0.377117,1.565552,0.232228,1.596148,0.078414,1.596148,-0.078414,1.565552,-0.232228,1.505537,-0.377117,1.418408,-0.507515,1.307515,-0.618408,1.177117,-0.705537,1.032228,-0.765552,0.878414,-0.796148,0.800000,-0.796148,0.800000,-0.800000,-1.400000,-0.800000,
-1.403843,-0.796157,-1.439018,-0.796157,-1.511114,-0.766294,-1.566294,-0.711114,-1.596157,-0.639018,-1.596157,-0.603843,-1.600000,-0.600000,-1.600000,0.600000,-1.596157,0.603843,-1.596157,0.639018,-1.566294,0.711114,-1.511114,0.766294,-1.439018,0.796157,-1.403843,0.796157,-1.400000,0.800000,0.800000,0.800000,0.800000,0.796148,0.800000,0.796148,$1*%
%AMFreePoly1*
4,1,37,1.403843,0.796157,1.439018,0.796157,1.511114,0.766294,1.566294,0.711114,1.596157,0.639018,1.596157,0.603843,1.600000,0.600000,1.600000,-0.600000,1.596157,-0.603843,1.596157,-0.639018,1.566294,-0.711114,1.511114,-0.766294,1.439018,-0.796157,1.403843,-0.796157,1.400000,-0.800000,-0.800000,-0.800000,-0.800000,-0.796148,-0.878414,-0.796148,-1.032228,-0.765552,-1.177117,-0.705537,
-1.307515,-0.618408,-1.418408,-0.507515,-1.505537,-0.377117,-1.565552,-0.232228,-1.596148,-0.078414,-1.596148,0.078414,-1.565552,0.232228,-1.505537,0.377117,-1.418408,0.507515,-1.307515,0.618408,-1.177117,0.705537,-1.032228,0.765552,-0.878414,0.796148,-0.800000,0.796148,-0.800000,0.800000,1.400000,0.800000,1.403843,0.796157,1.403843,0.796157,$1*%
%AMFreePoly2*
4,1,37,0.603843,0.796157,0.639018,0.796157,0.711114,0.766294,0.766294,0.711114,0.796157,0.639018,0.796157,0.603843,0.800000,0.600000,0.800000,-0.600000,0.796157,-0.603843,0.796157,-0.639018,0.766294,-0.711114,0.711114,-0.766294,0.639018,-0.796157,0.603843,-0.796157,0.600000,-0.800000,0.000000,-0.800000,0.000000,-0.796148,-0.078414,-0.796148,-0.232228,-0.765552,-0.377117,-0.705537,
-0.507515,-0.618408,-0.618408,-0.507515,-0.705537,-0.377117,-0.765552,-0.232228,-0.796148,-0.078414,-0.796148,0.078414,-0.765552,0.232228,-0.705537,0.377117,-0.618408,0.507515,-0.507515,0.618408,-0.377117,0.705537,-0.232228,0.765552,-0.078414,0.796148,0.000000,0.796148,0.000000,0.800000,0.600000,0.800000,0.603843,0.796157,0.603843,0.796157,$1*%
%AMFreePoly3*
4,1,37,0.000000,0.796148,0.078414,0.796148,0.232228,0.765552,0.377117,0.705537,0.507515,0.618408,0.618408,0.507515,0.705537,0.377117,0.765552,0.232228,0.796148,0.078414,0.796148,-0.078414,0.765552,-0.232228,0.705537,-0.377117,0.618408,-0.507515,0.507515,-0.618408,0.377117,-0.705537,0.232228,-0.765552,0.078414,-0.796148,0.000000,-0.796148,0.000000,-0.800000,-0.600000,-0.800000,
-0.603843,-0.796157,-0.639018,-0.796157,-0.711114,-0.766294,-0.766294,-0.711114,-0.796157,-0.639018,-0.796157,-0.603843,-0.800000,-0.600000,-0.800000,0.600000,-0.796157,0.603843,-0.796157,0.639018,-0.766294,0.711114,-0.711114,0.766294,-0.639018,0.796157,-0.603843,0.796157,-0.600000,0.800000,0.000000,0.800000,0.000000,0.796148,0.000000,0.796148,$1*%
G04 Aperture macros list end*
%TA.AperFunction,ComponentPad*%
%ADD10R,2.250000X2.250000*%
%TD*%
%TA.AperFunction,ComponentPad*%
%ADD11C,2.250000*%
%TD*%
%TA.AperFunction,ComponentPad*%
%ADD12C,1.600000*%
%TD*%
%TA.AperFunction,ComponentPad*%
%ADD13O,1.600000X1.600000*%
%TD*%
%TA.AperFunction,ComponentPad*%
%ADD14RoundRect,0.250000X-0.550000X0.550000X-0.550000X-0.550000X0.550000X-0.550000X0.550000X0.550000X0*%
%TD*%
%TA.AperFunction,SMDPad,CuDef*%
%ADD15FreePoly0,270.000000*%
%TD*%
%TA.AperFunction,ComponentPad*%
%ADD16RoundRect,0.200000X-0.600000X0.600000X-0.600000X-0.600000X0.600000X-0.600000X0.600000X0.600000X0*%
%TD*%
%TA.AperFunction,SMDPad,CuDef*%
%ADD17RoundRect,0.800000X-0.000010X0.800000X-0.000010X-0.800000X0.000010X-0.800000X0.000010X0.800000X0*%
%TD*%
%TA.AperFunction,SMDPad,CuDef*%
%ADD18FreePoly1,270.000000*%
%TD*%
%TA.AperFunction,ComponentPad*%
%ADD19FreePoly2,270.000000*%
%TD*%
%TA.AperFunction,ComponentPad*%
%ADD20FreePoly3,270.000000*%
%TD*%
%TA.AperFunction,ComponentPad*%
%ADD21RoundRect,0.250000X0.350000X0.750000X-0.350000X0.750000X-0.350000X-0.750000X0.350000X-0.750000X0*%
%TD*%
%TA.AperFunction,ComponentPad*%
%ADD22O,1.200000X2.000000*%
%TD*%
%TA.AperFunction,ViaPad*%
%ADD23C,0.600000*%
%TD*%
%TA.AperFunction,ViaPad*%
%ADD24C,0.800000*%
%TD*%
%TA.AperFunction,Conductor*%
%ADD25C,0.250000*%
%TD*%
%TA.AperFunction,Conductor*%
%ADD26C,1.000000*%
%TD*%
G04 APERTURE END LIST*
D10*
%TO.P,SW1,1,1*%
%TO.N,Net-(A1-GPIO22)*%
X143750000Y-103500000D03*
D11*
%TO.P,SW1,2,2*%
%TO.N,+3V3*%
X137250000Y-103500000D03*
%TD*%
D12*
%TO.P,R1,1*%
%TO.N,GND*%
X144310000Y-112000000D03*
D13*
%TO.P,R1,2*%
%TO.N,Net-(A1-GPIO22)*%
X136690000Y-112000000D03*
%TD*%
D14*
%TO.P,U2,1,DIR*%
%TO.N,+3V3*%
X179120000Y-112880000D03*
D12*
%TO.P,U2,2,A1*%
%TO.N,A0*%
X176580000Y-112880000D03*
%TO.P,U2,3,A2*%
%TO.N,A1*%
X174040000Y-112880000D03*
%TO.P,U2,4,A3*%
%TO.N,A2*%
X171500000Y-112880000D03*
%TO.P,U2,5,A4*%
%TO.N,A3*%
X168960000Y-112880000D03*
%TO.P,U2,6,A5*%
%TO.N,A4*%
X166420000Y-112880000D03*
%TO.P,U2,7,A6*%
%TO.N,A5*%
X163880000Y-112880000D03*
%TO.P,U2,8,A7*%
%TO.N,A6*%
X161340000Y-112880000D03*
%TO.P,U2,9,A8*%
%TO.N,A7*%
X158800000Y-112880000D03*
%TO.P,U2,10,GND*%
%TO.N,GND*%
X156260000Y-112880000D03*
%TO.P,U2,11,B8*%
%TO.N,P_A7*%
X156260000Y-120500000D03*
%TO.P,U2,12,B7*%
%TO.N,P_A6*%
X158800000Y-120500000D03*
%TO.P,U2,13,B6*%
%TO.N,P_A5*%
X161340000Y-120500000D03*
%TO.P,U2,14,B5*%
%TO.N,P_A4*%
X163880000Y-120500000D03*
%TO.P,U2,15,B4*%
%TO.N,P_A3*%
X166420000Y-120500000D03*
%TO.P,U2,16,B3*%
%TO.N,P_A2*%
X168960000Y-120500000D03*
%TO.P,U2,17,B2*%
%TO.N,P_A1*%
X171500000Y-120500000D03*
%TO.P,U2,18,B1*%
%TO.N,P_A0*%
X174040000Y-120500000D03*
%TO.P,U2,19,~{OE}*%
%TO.N,{slash}P_AE*%
X176580000Y-120500000D03*
%TO.P,U2,20,VCC*%
%TO.N,+3V3*%
X179120000Y-120500000D03*
%TD*%
%TO.P,C4,1*%
%TO.N,+5V*%
X102420000Y-134000000D03*
%TO.P,C4,2*%
%TO.N,GND*%
X102420000Y-131500000D03*
%TD*%
D14*
%TO.P,U4,1,DIR*%
%TO.N,+3V3*%
X179000000Y-101500000D03*
D12*
%TO.P,U4,2,A1*%
%TO.N,A8*%
X176460000Y-101500000D03*
%TO.P,U4,3,A2*%
%TO.N,A9*%
X173920000Y-101500000D03*
%TO.P,U4,4,A3*%
%TO.N,A10*%
X171380000Y-101500000D03*
%TO.P,U4,5,A4*%
%TO.N,A11*%
X168840000Y-101500000D03*
%TO.P,U4,6,A5*%
%TO.N,A12*%
X166300000Y-101500000D03*
%TO.P,U4,7,A6*%
%TO.N,A13*%
X163760000Y-101500000D03*
%TO.P,U4,8,A7*%
%TO.N,A14*%
X161220000Y-101500000D03*
%TO.P,U4,9,A8*%
%TO.N,A15*%
X158680000Y-101500000D03*
%TO.P,U4,10,GND*%
%TO.N,GND*%
X156140000Y-101500000D03*
%TO.P,U4,11,B8*%
%TO.N,P_A15_D7*%
X156140000Y-109120000D03*
%TO.P,U4,12,B7*%
%TO.N,P_A14_D6*%
X158680000Y-109120000D03*
%TO.P,U4,13,B6*%
%TO.N,P_A13_D5*%
X161220000Y-109120000D03*
%TO.P,U4,14,B5*%
%TO.N,P_A12_D4*%
X163760000Y-109120000D03*
%TO.P,U4,15,B4*%
%TO.N,P_A11_D3*%
X166300000Y-109120000D03*
%TO.P,U4,16,B3*%
%TO.N,P_A10_D2*%
X168840000Y-109120000D03*
%TO.P,U4,17,B2*%
%TO.N,P_A9_D1*%
X171380000Y-109120000D03*
%TO.P,U4,18,B1*%
%TO.N,P_A8_D0*%
X173920000Y-109120000D03*
%TO.P,U4,19,~{OE}*%
%TO.N,{slash}P_AE*%
X176460000Y-109120000D03*
%TO.P,U4,20,VCC*%
%TO.N,+3V3*%
X179000000Y-109120000D03*
%TD*%
D14*
%TO.P,U3,1*%
%TO.N,Net-(A1-GPIO26_ADC0)*%
X98000000Y-126500000D03*
D12*
%TO.P,U3,2*%
%TO.N,{slash}P_AE*%
X95460000Y-126500000D03*
%TO.P,U3,3*%
%TO.N,Net-(A1-GPIO27_ADC1)*%
X92920000Y-126500000D03*
%TO.P,U3,4*%
%TO.N,{slash}P_RD_DE*%
X90380000Y-126500000D03*
%TO.P,U3,5*%
%TO.N,Net-(A1-GPIO28_ADC2)*%
X87840000Y-126500000D03*
%TO.P,U3,6*%
%TO.N,{slash}P_WR_DE*%
X85300000Y-126500000D03*
%TO.P,U3,7,GND*%
%TO.N,GND*%
X82760000Y-126500000D03*
%TO.P,U3,8*%
%TO.N,unconnected-(U3-Pad8)*%
X82760000Y-134120000D03*
%TO.P,U3,9*%
%TO.N,GND*%
X85300000Y-134120000D03*
%TO.P,U3,10*%
%TO.N,{slash}RST*%
X87840000Y-134120000D03*
%TO.P,U3,11*%
%TO.N,Net-(A1-GPIO19)*%
X90380000Y-134120000D03*
%TO.P,U3,12*%
%TO.N,{slash}ROMDIS*%
X92920000Y-134120000D03*
%TO.P,U3,13*%
%TO.N,Net-(A1-GPIO20)*%
X95460000Y-134120000D03*
%TO.P,U3,14,VCC*%
%TO.N,+5V*%
X98000000Y-134120000D03*
%TD*%
%TO.P,C2,1*%
%TO.N,+3V3*%
X184000000Y-120500000D03*
%TO.P,C2,2*%
%TO.N,GND*%
X184000000Y-118000000D03*
%TD*%
D14*
%TO.P,U1,1,DIR*%
%TO.N,+3V3*%
X212820000Y-101880000D03*
D12*
%TO.P,U1,2,A1*%
%TO.N,D0*%
X210280000Y-101880000D03*
%TO.P,U1,3,A2*%
%TO.N,D1*%
X207740000Y-101880000D03*
%TO.P,U1,4,A3*%
%TO.N,D2*%
X205200000Y-101880000D03*
%TO.P,U1,5,A4*%
%TO.N,D3*%
X202660000Y-101880000D03*
%TO.P,U1,6,A5*%
%TO.N,D4*%
X200120000Y-101880000D03*
%TO.P,U1,7,A6*%
%TO.N,D5*%
X197580000Y-101880000D03*
%TO.P,U1,8,A7*%
%TO.N,D6*%
X195040000Y-101880000D03*
%TO.P,U1,9,A8*%
%TO.N,D7*%
X192500000Y-101880000D03*
%TO.P,U1,10,GND*%
%TO.N,GND*%
X189960000Y-101880000D03*
%TO.P,U1,11,B8*%
%TO.N,P_A15_D7*%
X189960000Y-109500000D03*
%TO.P,U1,12,B7*%
%TO.N,P_A14_D6*%
X192500000Y-109500000D03*
%TO.P,U1,13,B6*%
%TO.N,P_A13_D5*%
X195040000Y-109500000D03*
%TO.P,U1,14,B5*%
%TO.N,P_A12_D4*%
X197580000Y-109500000D03*
%TO.P,U1,15,B4*%
%TO.N,P_A11_D3*%
X200120000Y-109500000D03*
%TO.P,U1,16,B3*%
%TO.N,P_A10_D2*%
X202660000Y-109500000D03*
%TO.P,U1,17,B2*%
%TO.N,P_A9_D1*%
X205200000Y-109500000D03*
%TO.P,U1,18,B1*%
%TO.N,P_A8_D0*%
X207740000Y-109500000D03*
%TO.P,U1,19,~{OE}*%
%TO.N,{slash}P_RD_DE*%
X210280000Y-109500000D03*
%TO.P,U1,20,VCC*%
%TO.N,+3V3*%
X212820000Y-109500000D03*
%TD*%
%TO.P,C3,1*%
%TO.N,+3V3*%
X184000000Y-109000000D03*
%TO.P,C3,2*%
%TO.N,GND*%
X184000000Y-106500000D03*
%TD*%
%TO.P,C5,1*%
%TO.N,+5V*%
X217500000Y-120500000D03*
%TO.P,C5,2*%
%TO.N,GND*%
X217500000Y-118000000D03*
%TD*%
D14*
%TO.P,U5,1,DIR*%
%TO.N,GND*%
X212820000Y-113000000D03*
D12*
%TO.P,U5,2,A1*%
%TO.N,D0*%
X210280000Y-113000000D03*
%TO.P,U5,3,A2*%
%TO.N,D1*%
X207740000Y-113000000D03*
%TO.P,U5,4,A3*%
%TO.N,D2*%
X205200000Y-113000000D03*
%TO.P,U5,5,A4*%
%TO.N,D3*%
X202660000Y-113000000D03*
%TO.P,U5,6,A5*%
%TO.N,D4*%
X200120000Y-113000000D03*
%TO.P,U5,7,A6*%
%TO.N,D5*%
X197580000Y-113000000D03*
%TO.P,U5,8,A7*%
%TO.N,D6*%
X195040000Y-113000000D03*
%TO.P,U5,9,A8*%
%TO.N,D7*%
X192500000Y-113000000D03*
%TO.P,U5,10,GND*%
%TO.N,GND*%
X189960000Y-113000000D03*
%TO.P,U5,11,B8*%
%TO.N,P_A15_D7*%
X189960000Y-120620000D03*
%TO.P,U5,12,B7*%
%TO.N,P_A14_D6*%
X192500000Y-120620000D03*
%TO.P,U5,13,B6*%
%TO.N,P_A13_D5*%
X195040000Y-120620000D03*
%TO.P,U5,14,B5*%
%TO.N,P_A12_D4*%
X197580000Y-120620000D03*
%TO.P,U5,15,B4*%
%TO.N,P_A11_D3*%
X200120000Y-120620000D03*
%TO.P,U5,16,B3*%
%TO.N,P_A10_D2*%
X202660000Y-120620000D03*
%TO.P,U5,17,B2*%
%TO.N,P_A9_D1*%
X205200000Y-120620000D03*
%TO.P,U5,18,B1*%
%TO.N,P_A8_D0*%
X207740000Y-120620000D03*
%TO.P,U5,19,~{OE}*%
%TO.N,{slash}P_WR_DE*%
X210280000Y-120620000D03*
%TO.P,U5,20,VCC*%
%TO.N,+5V*%
X212820000Y-120620000D03*
%TD*%
D15*
%TO.P,A1,1,GPIO0*%
%TO.N,P_A0*%
X124700000Y-102200000D03*
D16*
X124700000Y-103000000D03*
D17*
%TO.P,A1,2,GPIO1*%
%TO.N,P_A1*%
X122160000Y-102200000D03*
D12*
X122160000Y-103000000D03*
D18*
%TO.P,A1,3,GND*%
%TO.N,GND*%
X119620000Y-102200000D03*
D19*
X119620000Y-103000000D03*
D17*
%TO.P,A1,4,GPIO2*%
%TO.N,P_A2*%
X117080000Y-102200000D03*
D12*
X117080000Y-103000000D03*
D17*
%TO.P,A1,5,GPIO3*%
%TO.N,P_A3*%
X114540000Y-102200000D03*
D12*
X114540000Y-103000000D03*
D17*
%TO.P,A1,6,GPIO4*%
%TO.N,P_A4*%
X112000000Y-102200000D03*
D12*
X112000000Y-103000000D03*
D17*
%TO.P,A1,7,GPIO5*%
%TO.N,P_A5*%
X109460000Y-102200000D03*
D12*
X109460000Y-103000000D03*
D18*
%TO.P,A1,8,GND*%
%TO.N,GND*%
X106920000Y-102200000D03*
D19*
X106920000Y-103000000D03*
D17*
%TO.P,A1,9,GPIO6*%
%TO.N,P_A6*%
X104380000Y-102200000D03*
D12*
X104380000Y-103000000D03*
D17*
%TO.P,A1,10,GPIO7*%
%TO.N,P_A7*%
X101840000Y-102200000D03*
D12*
X101840000Y-103000000D03*
D17*
%TO.P,A1,11,GPIO8*%
%TO.N,P_A8_D0*%
X99300000Y-102200000D03*
D12*
X99300000Y-103000000D03*
D17*
%TO.P,A1,12,GPIO9*%
%TO.N,P_A9_D1*%
X96760000Y-102200000D03*
D12*
X96760000Y-103000000D03*
D18*
%TO.P,A1,13,GND*%
%TO.N,GND*%
X94220000Y-102200000D03*
D19*
X94220000Y-103000000D03*
D17*
%TO.P,A1,14,GPIO10*%
%TO.N,P_A10_D2*%
X91680000Y-102200000D03*
D12*
X91680000Y-103000000D03*
D17*
%TO.P,A1,15,GPIO11*%
%TO.N,P_A11_D3*%
X89140000Y-102200000D03*
D12*
X89140000Y-103000000D03*
D17*
%TO.P,A1,16,GPIO12*%
%TO.N,P_A12_D4*%
X86600000Y-102200000D03*
D12*
X86600000Y-103000000D03*
D17*
%TO.P,A1,17,GPIO13*%
%TO.N,P_A13_D5*%
X84060000Y-102200000D03*
D12*
X84060000Y-103000000D03*
D18*
%TO.P,A1,18,GND*%
%TO.N,GND*%
X81520000Y-102200000D03*
D19*
X81520000Y-103000000D03*
D17*
%TO.P,A1,19,GPIO14*%
%TO.N,P_A14_D6*%
X78980000Y-102200000D03*
D12*
X78980000Y-103000000D03*
D17*
%TO.P,A1,20,GPIO15*%
%TO.N,P_A15_D7*%
X76440000Y-102200000D03*
D12*
X76440000Y-103000000D03*
%TO.P,A1,21,GPIO16*%
%TO.N,{slash}RD*%
X76440000Y-120780000D03*
D17*
X76440000Y-121580000D03*
D12*
%TO.P,A1,22,GPIO17*%
%TO.N,{slash}WR*%
X78980000Y-120780000D03*
D17*
X78980000Y-121580000D03*
D20*
%TO.P,A1,23,GND*%
%TO.N,GND*%
X81520000Y-120780000D03*
D15*
X81520000Y-121580000D03*
D12*
%TO.P,A1,24,GPIO18*%
%TO.N,{slash}IORQ*%
X84060000Y-120780000D03*
D17*
X84060000Y-121580000D03*
D12*
%TO.P,A1,25,GPIO19*%
%TO.N,Net-(A1-GPIO19)*%
X86600000Y-120780000D03*
D17*
X86600000Y-121580000D03*
D12*
%TO.P,A1,26,GPIO20*%
%TO.N,Net-(A1-GPIO20)*%
X89140000Y-120780000D03*
D17*
X89140000Y-121580000D03*
D12*
%TO.P,A1,27,GPIO21*%
%TO.N,{slash}MREQ*%
X91680000Y-120780000D03*
D17*
X91680000Y-121580000D03*
D20*
%TO.P,A1,28,GND*%
%TO.N,GND*%
X94220000Y-120780000D03*
D15*
X94220000Y-121580000D03*
D12*
%TO.P,A1,29,GPIO22*%
%TO.N,Net-(A1-GPIO22)*%
X96760000Y-120780000D03*
D17*
X96760000Y-121580000D03*
D12*
%TO.P,A1,30,RUN*%
%TO.N,unconnected-(A1-RUN-Pad30)*%
X99300000Y-120780000D03*
D17*
%TO.N,unconnected-(A1-RUN-Pad30)_1*%
X99300000Y-121580000D03*
D12*
%TO.P,A1,31,GPIO26_ADC0*%
%TO.N,Net-(A1-GPIO26_ADC0)*%
X101840000Y-120780000D03*
D17*
X101840000Y-121580000D03*
D12*
%TO.P,A1,32,GPIO27_ADC1*%
%TO.N,Net-(A1-GPIO27_ADC1)*%
X104380000Y-120780000D03*
D17*
X104380000Y-121580000D03*
D20*
%TO.P,A1,33,AGND*%
%TO.N,GND*%
X106920000Y-120780000D03*
D15*
X106920000Y-121580000D03*
D12*
%TO.P,A1,34,GPIO28_ADC2*%
%TO.N,Net-(A1-GPIO28_ADC2)*%
X109460000Y-120780000D03*
D17*
X109460000Y-121580000D03*
D12*
%TO.P,A1,35,ADC_VREF*%
%TO.N,unconnected-(A1-ADC_VREF-Pad35)*%
X112000000Y-120780000D03*
D17*
%TO.N,unconnected-(A1-ADC_VREF-Pad35)_1*%
X112000000Y-121580000D03*
D12*
%TO.P,A1,36,3V3*%
%TO.N,+3V3*%
X114540000Y-120780000D03*
D17*
X114540000Y-121580000D03*
D12*
%TO.P,A1,37,3V3_EN*%
%TO.N,unconnected-(A1-3V3_EN-Pad37)_1*%
X117080000Y-120780000D03*
D17*
%TO.N,unconnected-(A1-3V3_EN-Pad37)*%
X117080000Y-121580000D03*
D20*
%TO.P,A1,38,GND*%
%TO.N,GND*%
X119620000Y-120780000D03*
D15*
X119620000Y-121580000D03*
D12*
%TO.P,A1,39,VSYS*%
%TO.N,+5V*%
X122160000Y-120780000D03*
D17*
X122160000Y-121580000D03*
D12*
%TO.P,A1,40,VBUS*%
%TO.N,unconnected-(A1-VBUS-Pad40)*%
X124700000Y-120780000D03*
D17*
%TO.N,unconnected-(A1-VBUS-Pad40)_1*%
X124700000Y-121580000D03*
%TD*%
D12*
%TO.P,C1,1*%
%TO.N,+3V3*%
X217500000Y-109500000D03*
%TO.P,C1,2*%
%TO.N,GND*%
X217500000Y-107000000D03*
%TD*%
D21*
%TO.P,J1,1,Pin_1*%
%TO.N,+5V*%
X181040000Y-125000000D03*
D22*
%TO.P,J1,2,Pin_2*%
%TO.N,{slash}CNTRL2*%
X181040000Y-130080000D03*
%TO.P,J1,3,Pin_3*%
%TO.N,unconnected-(J1-Pin_3-Pad3)*%
X178500000Y-125000000D03*
%TO.P,J1,4,Pin_4*%
%TO.N,unconnected-(J1-Pin_4-Pad4)*%
X178500000Y-130080000D03*
%TO.P,J1,5,Pin_5*%
%TO.N,{slash}CNTRL1*%
X175960000Y-125000000D03*
%TO.P,J1,6,Pin_6*%
%TO.N,{slash}WAIT*%
X175960000Y-130080000D03*
%TO.P,J1,7,Pin_7*%
%TO.N,{slash}RST*%
X173420000Y-125000000D03*
%TO.P,J1,8,Pin_8*%
%TO.N,unconnected-(J1-Pin_8-Pad8)*%
X173420000Y-130080000D03*
%TO.P,J1,9,Pin_9*%
%TO.N,A15*%
X170880000Y-125000000D03*
%TO.P,J1,10,Pin_10*%
%TO.N,A14*%
X170880000Y-130080000D03*
%TO.P,J1,11,Pin_11*%
%TO.N,A13*%
X168340000Y-125000000D03*
%TO.P,J1,12,Pin_12*%
%TO.N,A12*%
X168340000Y-130080000D03*
%TO.P,J1,13,Pin_13*%
%TO.N,A11*%
X165800000Y-125000000D03*
%TO.P,J1,14,Pin_14*%
%TO.N,A10*%
X165800000Y-130080000D03*
%TO.P,J1,15,Pin_15*%
%TO.N,A9*%
X163260000Y-125000000D03*
%TO.P,J1,16,Pin_16*%
%TO.N,A8*%
X163260000Y-130080000D03*
%TO.P,J1,17,Pin_17*%
%TO.N,A7*%
X160720000Y-125000000D03*
%TO.P,J1,18,Pin_18*%
%TO.N,A6*%
X160720000Y-130080000D03*
%TO.P,J1,19,Pin_19*%
%TO.N,A5*%
X158180000Y-125000000D03*
%TO.P,J1,20,Pin_20*%
%TO.N,A4*%
X158180000Y-130080000D03*
%TO.P,J1,21,Pin_21*%
%TO.N,A3*%
X155640000Y-125000000D03*
%TO.P,J1,22,Pin_22*%
%TO.N,A2*%
X155640000Y-130080000D03*
%TO.P,J1,23,Pin_23*%
%TO.N,A1*%
X153100000Y-125000000D03*
%TO.P,J1,24,Pin_24*%
%TO.N,A0*%
X153100000Y-130080000D03*
%TO.P,J1,25,Pin_25*%
%TO.N,{slash}RFSH*%
X150560000Y-125000000D03*
%TO.P,J1,26,Pin_26*%
%TO.N,{slash}EXCSR*%
X150560000Y-130080000D03*
%TO.P,J1,27,Pin_27*%
%TO.N,{slash}M1*%
X148020000Y-125000000D03*
%TO.P,J1,28,Pin_28*%
%TO.N,{slash}EXCSW*%
X148020000Y-130080000D03*
%TO.P,J1,29,Pin_29*%
%TO.N,{slash}WR*%
X145480000Y-125000000D03*
%TO.P,J1,30,Pin_30*%
%TO.N,{slash}MREQ*%
X145480000Y-130080000D03*
%TO.P,J1,31,Pin_31*%
%TO.N,{slash}IORQ*%
X142940000Y-125000000D03*
%TO.P,J1,32,Pin_32*%
%TO.N,{slash}RD*%
X142940000Y-130080000D03*
%TO.P,J1,33,Pin_33*%
%TO.N,D0*%
X140400000Y-125000000D03*
%TO.P,J1,34,Pin_34*%
%TO.N,D1*%
X140400000Y-130080000D03*
%TO.P,J1,35,Pin_35*%
%TO.N,D2*%
X137860000Y-125000000D03*
%TO.P,J1,36,Pin_36*%
%TO.N,D3*%
X137860000Y-130080000D03*
%TO.P,J1,37,Pin_37*%
%TO.N,D4*%
X135320000Y-125000000D03*
%TO.P,J1,38,Pin_38*%
%TO.N,D5*%
X135320000Y-130080000D03*
%TO.P,J1,39,Pin_39*%
%TO.N,D6*%
X132780000Y-125000000D03*
%TO.P,J1,40,Pin_40*%
%TO.N,D7*%
X132780000Y-130080000D03*
%TO.P,J1,41,Pin_41*%
%TO.N,unconnected-(J1-Pin_41-Pad41)*%
X130240000Y-125000000D03*
%TO.P,J1,42,Pin_42*%
%TO.N,{slash}INT*%
X130240000Y-130080000D03*
%TO.P,J1,43,Pin_43*%
%TO.N,GND*%
X127700000Y-125000000D03*
%TO.P,J1,44,Pin_44*%
%TO.N,{slash}ROMDIS*%
X127700000Y-130080000D03*
%TO.P,J1,45,Pin_45*%
%TO.N,{slash}BK32*%
X125160000Y-125000000D03*
%TO.P,J1,46,Pin_46*%
%TO.N,{slash}BK31*%
X125160000Y-130080000D03*
%TO.P,J1,47,Pin_47*%
%TO.N,{slash}BK22*%
X122620000Y-125000000D03*
%TO.P,J1,48,Pin_48*%
%TO.N,{slash}BK21*%
X122620000Y-130080000D03*
%TO.P,J1,49,Pin_49*%
%TO.N,GND*%
X120080000Y-125000000D03*
%TO.P,J1,50,Pin_50*%
X120080000Y-130080000D03*
%TD*%
D23*
%TO.N,Net-(A1-GPIO22)*%
X89000000Y-106500000D03*
%TO.N,+3V3*%
X99500000Y-104500000D03*
%TO.N,{slash}RST*%
X124000000Y-132500000D03*
X173500000Y-128000000D03*
D24*
%TO.N,GND*%
X175371917Y-111379000D03*
D23*
%TO.N,P_A12_D4*%
X149500000Y-108000000D03*
X197580000Y-105080000D03*
%TO.N,{slash}RD*%
X115999393Y-132746393D03*
X118526000Y-133474000D03*
%TO.N,P_A10_D2*%
X149500000Y-106000000D03*
X202660000Y-106660000D03*
%TO.N,P_A11_D3*%
X167500000Y-101000000D03*
X165000000Y-106500000D03*
X149500000Y-107000000D03*
X200000000Y-106000000D03*
%TO.N,P_A8_D0*%
X197000000Y-122500000D03*
X149500000Y-104000000D03*
X201500000Y-124500000D03*
X181500000Y-105000000D03*
X188030847Y-121530847D03*
%TO.N,P_A13_D5*%
X195000000Y-104500000D03*
X149500000Y-109000000D03*
%TO.N,P_A9_D1*%
X172000000Y-106000000D03*
X205000000Y-103500000D03*
X149500000Y-105000000D03*
%TO.N,P_A14_D6*%
X192500000Y-104000000D03*
X79000000Y-124500000D03*
X195000000Y-103500000D03*
X208000000Y-100500000D03*
X149500000Y-110000000D03*
%TO.N,{slash}WR*%
X89500000Y-116000000D03*
%TO.N,A0*%
X170500000Y-128500000D03*
%TO.N,A2*%
X167500000Y-127500000D03*
X171500000Y-114500000D03*
%TO.N,D7*%
X193891095Y-122500000D03*
X194927761Y-134428761D03*
%TO.N,{slash}MREQ*%
X126500000Y-122500000D03*
%TO.N,A10*%
X154500000Y-128000000D03*
%TO.N,D4*%
X135500000Y-127500000D03*
X173000000Y-132500000D03*
%TO.N,A3*%
X159500000Y-114875000D03*
%TO.N,A6*%
X150500000Y-128000000D03*
X150500000Y-114000000D03*
%TO.N,A1*%
X152500000Y-115000000D03*
%TO.N,{slash}P_RD_DE*%
X210000000Y-116374000D03*
%TO.N,{slash}P_AE*%
X139000000Y-116000000D03*
%TD*%
D25*
%TO.N,P_A13_D5*%
X89200000Y-108140000D02*
X108140000Y-108140000D01*
X148362190Y-110137810D02*
X149500000Y-109000000D01*
X108140000Y-108140000D02*
X111324403Y-111324403D01*
X111324403Y-111324403D02*
X116709511Y-111324403D01*
X121385108Y-116000000D02*
X123500000Y-116000000D01*
X148362190Y-111362190D02*
X148362190Y-110137810D01*
X123500000Y-116000000D02*
X123591000Y-116091000D01*
X116709511Y-111324403D02*
X121385108Y-116000000D01*
X84060000Y-103000000D02*
X89200000Y-108140000D01*
X123591000Y-116091000D02*
X134271190Y-116091000D01*
X135862190Y-114500000D02*
X145224380Y-114500000D01*
X134271190Y-116091000D02*
X135862190Y-114500000D01*
X145224380Y-114500000D02*
X148362190Y-111362190D01*
%TO.N,P_A14_D6*%
X83500000Y-104500000D02*
X87591000Y-108591000D01*
X149500000Y-110862190D02*
X149500000Y-110000000D01*
X78980000Y-103000000D02*
X80480000Y-104500000D01*
X116500000Y-111775403D02*
X121266597Y-116542000D01*
X136000000Y-115000000D02*
X145362190Y-115000000D01*
X87591000Y-108591000D02*
X107953190Y-108591000D01*
X134458000Y-116542000D02*
X136000000Y-115000000D01*
X111137593Y-111775403D02*
X116500000Y-111775403D01*
X121266597Y-116542000D02*
X134458000Y-116542000D01*
X107953190Y-108591000D02*
X111137593Y-111775403D01*
X80480000Y-104500000D02*
X83500000Y-104500000D01*
X145362190Y-115000000D02*
X149500000Y-110862190D01*
%TO.N,Net-(A1-GPIO22)*%
X90019905Y-107519905D02*
X89000000Y-106500000D01*
X131500000Y-107519905D02*
X90019905Y-107519905D01*
X136690000Y-112000000D02*
X132209905Y-107519905D01*
X132209905Y-107519905D02*
X131500000Y-107519905D01*
%TO.N,P_A12_D4*%
X149362190Y-108000000D02*
X148431095Y-107068905D01*
X148431095Y-107068905D02*
X90668905Y-107068905D01*
X149500000Y-108000000D02*
X149362190Y-108000000D01*
X90668905Y-107068905D02*
X86600000Y-103000000D01*
%TO.N,P_A11_D3*%
X149500000Y-107000000D02*
X149000000Y-107000000D01*
X149000000Y-107000000D02*
X148451000Y-106451000D01*
X148451000Y-106451000D02*
X92591000Y-106451000D01*
X92591000Y-106451000D02*
X89140000Y-103000000D01*
%TO.N,+3V3*%
X101000000Y-104625000D02*
X99625000Y-104625000D01*
X99625000Y-104625000D02*
X99500000Y-104500000D01*
X136125000Y-104625000D02*
X101000000Y-104625000D01*
X137250000Y-103500000D02*
X136125000Y-104625000D01*
%TO.N,P_A9_D1*%
X149500000Y-105000000D02*
X148951000Y-105549000D01*
X99309000Y-105549000D02*
X96760000Y-103000000D01*
X148951000Y-105549000D02*
X99309000Y-105549000D01*
%TO.N,P_A8_D0*%
X149500000Y-104000000D02*
X146220000Y-100720000D01*
X146220000Y-100720000D02*
X129411000Y-100720000D01*
X129411000Y-100720000D02*
X126000000Y-104131000D01*
X126000000Y-104131000D02*
X100431000Y-104131000D01*
X100431000Y-104131000D02*
X99300000Y-103000000D01*
%TO.N,{slash}RST*%
X123500000Y-132500000D02*
X124000000Y-132500000D01*
X122500000Y-133500000D02*
X123500000Y-132500000D01*
X121427000Y-134573000D02*
X122500000Y-133500000D01*
X103874000Y-132874000D02*
X105573000Y-134573000D01*
X101953595Y-132874000D02*
X103874000Y-132874000D01*
X105573000Y-134573000D02*
X121427000Y-134573000D01*
X101622595Y-132543000D02*
X101953595Y-132874000D01*
X89417000Y-132543000D02*
X101622595Y-132543000D01*
X87840000Y-134120000D02*
X89417000Y-132543000D01*
%TO.N,{slash}RD*%
X118526000Y-133474000D02*
X121006000Y-130994000D01*
X121006000Y-130994000D02*
X121006000Y-129984438D01*
X121006000Y-129984438D02*
X122236438Y-128754000D01*
X135200628Y-122772000D02*
X139881562Y-122772000D01*
X122236438Y-128754000D02*
X130746000Y-128754000D01*
X133943000Y-124029628D02*
X135200628Y-122772000D01*
X130746000Y-128754000D02*
X133943000Y-125557000D01*
X133943000Y-125557000D02*
X133943000Y-124029628D01*
X139881562Y-122772000D02*
X141326000Y-124216438D01*
X141326000Y-124216438D02*
X141326000Y-128466000D01*
X141326000Y-128466000D02*
X142940000Y-130080000D01*
D26*
%TO.N,GND*%
X120080000Y-125000000D02*
X120080000Y-127000000D01*
X127700000Y-125000000D02*
X125700000Y-127000000D01*
X125700000Y-127000000D02*
X120080000Y-127000000D01*
D25*
%TO.N,{slash}RST*%
X173420000Y-127920000D02*
X173500000Y-128000000D01*
X173420000Y-125000000D02*
X173420000Y-127920000D01*
%TO.N,Net-(A1-GPIO26_ADC0)*%
X101840000Y-123760000D02*
X101840000Y-120780000D01*
X99100000Y-126500000D02*
X98000000Y-126500000D01*
X101840000Y-123760000D02*
X99100000Y-126500000D01*
D26*
%TO.N,GND*%
X189960000Y-101880000D02*
X187500000Y-101880000D01*
X119620000Y-124540000D02*
X120080000Y-125000000D01*
X180500000Y-109877000D02*
X180500000Y-104584372D01*
X187500000Y-113000000D02*
X184000000Y-116500000D01*
X184000000Y-106500000D02*
X187500000Y-106500000D01*
X179000000Y-111379000D02*
X180501000Y-109878000D01*
X217500000Y-118000000D02*
X217500000Y-117680000D01*
X183204372Y-101880000D02*
X187500000Y-101880000D01*
X82760000Y-124260000D02*
X82500000Y-124000000D01*
X175371917Y-111379000D02*
X179000000Y-111379000D01*
X82760000Y-126500000D02*
X82760000Y-124260000D01*
X217500000Y-117680000D02*
X212820000Y-113000000D01*
X93500000Y-124000000D02*
X82500000Y-124000000D01*
X119620000Y-120780000D02*
X117063000Y-118223000D01*
X119620000Y-121580000D02*
X119620000Y-124540000D01*
X117063000Y-118223000D02*
X96777000Y-118223000D01*
X81520000Y-121580000D02*
X81520000Y-124000000D01*
X105915140Y-133747000D02*
X116413000Y-133747000D01*
X187500000Y-106500000D02*
X187500000Y-101880000D01*
X120080000Y-127000000D02*
X120080000Y-130080000D01*
X184000000Y-116500000D02*
X184000000Y-118000000D01*
X116413000Y-133747000D02*
X120080000Y-130080000D01*
X106920000Y-121962736D02*
X106920000Y-121580000D01*
X102420000Y-131500000D02*
X103668140Y-131500000D01*
X180500000Y-104584372D02*
X183204372Y-101880000D01*
X94220000Y-123280000D02*
X93500000Y-124000000D01*
X119580000Y-124500000D02*
X119620000Y-124540000D01*
X94220000Y-121580000D02*
X94220000Y-123280000D01*
X96777000Y-118223000D02*
X94220000Y-120780000D01*
X82500000Y-124000000D02*
X81520000Y-124000000D01*
X103668140Y-131500000D02*
X105915140Y-133747000D01*
X180501000Y-109878000D02*
X180500000Y-109877000D01*
X187500000Y-113000000D02*
X187500000Y-106500000D01*
D25*
%TO.N,Net-(A1-GPIO28_ADC2)*%
X95925000Y-124923000D02*
X91500000Y-124923000D01*
X99438594Y-119049000D02*
X107729000Y-119049000D01*
X89417000Y-124923000D02*
X87840000Y-126500000D01*
X98174000Y-122674000D02*
X95925000Y-124923000D01*
X98174000Y-120313594D02*
X99438594Y-119049000D01*
X98174000Y-122674000D02*
X98174000Y-120313594D01*
X107729000Y-119049000D02*
X109460000Y-120780000D01*
X91500000Y-124923000D02*
X89417000Y-124923000D01*
%TO.N,P_A12_D4*%
X197580000Y-120620000D02*
X196454000Y-119494000D01*
X196454000Y-119494000D02*
X196454000Y-110626000D01*
X196454000Y-110626000D02*
X197580000Y-109500000D01*
X197580000Y-109500000D02*
X197580000Y-105080000D01*
%TO.N,{slash}RD*%
X79938000Y-123938000D02*
X79506000Y-123506000D01*
X82106785Y-128077000D02*
X79938000Y-125908215D01*
X115999393Y-132746393D02*
X106246393Y-132746393D01*
X101500000Y-128077000D02*
X82106785Y-128077000D01*
X106246393Y-132746393D02*
X101577000Y-128077000D01*
X78366000Y-123506000D02*
X76440000Y-121580000D01*
X79506000Y-123506000D02*
X78366000Y-123506000D01*
X101577000Y-128077000D02*
X101500000Y-128077000D01*
X79938000Y-125908215D02*
X79938000Y-123938000D01*
D26*
%TO.N,+3V3*%
X217500000Y-109500000D02*
X212820000Y-109500000D01*
D25*
X212820000Y-101880000D02*
X212820000Y-109500000D01*
X179000000Y-109120000D02*
X179000000Y-101500000D01*
%TO.N,Net-(A1-GPIO27_ADC1)*%
X101527594Y-119500000D02*
X103100000Y-119500000D01*
X97898406Y-125374000D02*
X100426000Y-122846406D01*
X94046000Y-125374000D02*
X92920000Y-126500000D01*
X97374000Y-125374000D02*
X97898406Y-125374000D01*
X103100000Y-119500000D02*
X104380000Y-120780000D01*
X100426000Y-122846406D02*
X100426000Y-120601594D01*
X96000000Y-125374000D02*
X97374000Y-125374000D01*
X100426000Y-120601594D02*
X101527594Y-119500000D01*
X96000000Y-125374000D02*
X94046000Y-125374000D01*
%TO.N,{slash}IORQ*%
X90374000Y-114936984D02*
X90374000Y-117511298D01*
X90374000Y-117511298D02*
X88231298Y-119654000D01*
X119862190Y-118000000D02*
X115362190Y-113500000D01*
X135940000Y-118000000D02*
X119862190Y-118000000D01*
X142940000Y-125000000D02*
X135940000Y-118000000D01*
X93950284Y-111360700D02*
X90374000Y-114936984D01*
X88231298Y-119654000D02*
X85186000Y-119654000D01*
X108222890Y-111360700D02*
X93950284Y-111360700D01*
X115362190Y-113500000D02*
X110362190Y-113500000D01*
X85186000Y-119654000D02*
X84060000Y-120780000D01*
X110362190Y-113500000D02*
X108222890Y-111360700D01*
X84060000Y-120780000D02*
X84060000Y-122940000D01*
%TO.N,P_A10_D2*%
X94680000Y-106000000D02*
X149500000Y-106000000D01*
X201534000Y-119494000D02*
X201534000Y-110626000D01*
X202660000Y-120620000D02*
X201534000Y-119494000D01*
X202660000Y-109500000D02*
X202660000Y-106660000D01*
X201534000Y-110626000D02*
X202660000Y-109500000D01*
X91680000Y-103000000D02*
X94680000Y-106000000D01*
%TO.N,P_A11_D3*%
X167500000Y-104000000D02*
X165000000Y-106500000D01*
X200120000Y-120620000D02*
X198994000Y-119494000D01*
X198994000Y-119494000D02*
X198994000Y-110626000D01*
X198994000Y-110626000D02*
X200120000Y-109500000D01*
X200120000Y-106120000D02*
X200000000Y-106000000D01*
X167500000Y-101000000D02*
X167500000Y-104000000D01*
X200120000Y-109500000D02*
X200120000Y-106120000D01*
%TO.N,P_A15_D7*%
X188834000Y-119494000D02*
X188834000Y-110626000D01*
X76440000Y-102347594D02*
X78518594Y-100269000D01*
X76440000Y-103000000D02*
X76440000Y-102347594D01*
X156140000Y-109120000D02*
X157266000Y-107994000D01*
X78518594Y-100269000D02*
X170000000Y-100269000D01*
X157266000Y-107994000D02*
X166506000Y-107994000D01*
X191374000Y-103500000D02*
X191374000Y-108086000D01*
X169549000Y-104951000D02*
X169549000Y-102451000D01*
X169549000Y-102451000D02*
X170000000Y-102000000D01*
X191374000Y-108086000D02*
X189960000Y-109500000D01*
X189960000Y-120620000D02*
X188834000Y-119494000D01*
X170000000Y-102000000D02*
X170000000Y-100269000D01*
X191374000Y-101413595D02*
X191374000Y-103500000D01*
X188834000Y-110626000D02*
X189960000Y-109500000D01*
X170000000Y-100269000D02*
X190229405Y-100269000D01*
X166506000Y-107994000D02*
X169549000Y-104951000D01*
X190229405Y-100269000D02*
X191374000Y-101413595D01*
%TO.N,P_A8_D0*%
X188000000Y-121500000D02*
X185500000Y-121500000D01*
X199500000Y-122500000D02*
X201500000Y-124500000D01*
X185203797Y-121796203D02*
X183703799Y-121796203D01*
X207740000Y-114902190D02*
X207740000Y-120620000D01*
X206614000Y-110626000D02*
X206614000Y-113776190D01*
X181500000Y-119592405D02*
X181500000Y-105000000D01*
X206614000Y-113776190D02*
X207740000Y-114902190D01*
X183703799Y-121796203D02*
X181500000Y-119592405D01*
X197000000Y-122500000D02*
X199500000Y-122500000D01*
X207740000Y-109500000D02*
X206614000Y-110626000D01*
X185500000Y-121500000D02*
X185203797Y-121796203D01*
X188030847Y-121530847D02*
X188000000Y-121500000D01*
%TO.N,P_A13_D5*%
X195040000Y-120620000D02*
X193914000Y-119494000D01*
X193914000Y-112533595D02*
X194589000Y-111858595D01*
X193914000Y-119494000D02*
X193914000Y-112533595D01*
X194589000Y-109951000D02*
X195040000Y-109500000D01*
X195040000Y-109500000D02*
X195040000Y-104540000D01*
X195040000Y-104540000D02*
X195000000Y-104500000D01*
X194589000Y-111858595D02*
X194589000Y-109951000D01*
%TO.N,P_A9_D1*%
X172000000Y-106000000D02*
X171380000Y-106620000D01*
X205200000Y-120620000D02*
X204074000Y-119494000D01*
X205200000Y-109500000D02*
X205200000Y-103700000D01*
X204074000Y-119494000D02*
X204074000Y-110626000D01*
X171380000Y-106620000D02*
X171380000Y-109120000D01*
X204074000Y-110626000D02*
X205200000Y-109500000D01*
X205200000Y-103700000D02*
X205000000Y-103500000D01*
%TO.N,P_A14_D6*%
X77494000Y-123506000D02*
X75973594Y-123506000D01*
X193914000Y-101413595D02*
X193914000Y-102414000D01*
X208000000Y-100500000D02*
X194827595Y-100500000D01*
X191374000Y-110626000D02*
X192500000Y-109500000D01*
X192500000Y-109500000D02*
X192500000Y-104000000D01*
X193914000Y-102414000D02*
X195000000Y-103500000D01*
X77500000Y-123500000D02*
X77494000Y-123506000D01*
X194827595Y-100500000D02*
X193914000Y-101413595D01*
X73626000Y-121158406D02*
X73626000Y-108354000D01*
X191374000Y-119494000D02*
X191374000Y-110626000D01*
X79000000Y-124500000D02*
X78500000Y-124000000D01*
X73626000Y-108354000D02*
X78980000Y-103000000D01*
X78500000Y-124000000D02*
X78000000Y-124000000D01*
X192500000Y-120620000D02*
X191374000Y-119494000D01*
X75973594Y-123506000D02*
X73626000Y-121158406D01*
X78000000Y-124000000D02*
X77500000Y-123500000D01*
D26*
%TO.N,+5V*%
X212940000Y-120500000D02*
X212820000Y-120620000D01*
X217500000Y-120500000D02*
X212940000Y-120500000D01*
X201699000Y-136301000D02*
X217500000Y-120500000D01*
X99660000Y-134120000D02*
X101841000Y-136301000D01*
X98000000Y-134120000D02*
X99660000Y-134120000D01*
X101841000Y-136301000D02*
X201699000Y-136301000D01*
D25*
%TO.N,{slash}WR*%
X115500000Y-113000000D02*
X115500000Y-112951000D01*
X136500000Y-117500000D02*
X120000000Y-117500000D01*
X145480000Y-125000000D02*
X142801000Y-122321000D01*
X107000000Y-109500000D02*
X91137810Y-109500000D01*
X120000000Y-117500000D02*
X115500000Y-113000000D01*
X91137810Y-109500000D02*
X89500000Y-111137810D01*
X141321000Y-122321000D02*
X136500000Y-117500000D01*
X110451000Y-112951000D02*
X107000000Y-109500000D01*
X89500000Y-111137810D02*
X89500000Y-116000000D01*
X115500000Y-112951000D02*
X110451000Y-112951000D01*
X142801000Y-122321000D02*
X141321000Y-122321000D01*
%TO.N,A0*%
X170500000Y-128500000D02*
X169954000Y-127954000D01*
X169954000Y-124216438D02*
X170496438Y-123674000D01*
X170496438Y-123674000D02*
X173734000Y-123674000D01*
X169954000Y-127954000D02*
X169954000Y-124216438D01*
X176580000Y-112880000D02*
X175454000Y-114006000D01*
X175454000Y-114006000D02*
X175454000Y-121954000D01*
X175454000Y-121954000D02*
X173734000Y-123674000D01*
%TO.N,A13*%
X169266000Y-130863562D02*
X167821562Y-132308000D01*
X148946000Y-130863562D02*
X148946000Y-113445975D01*
X160000000Y-106500000D02*
X163760000Y-102740000D01*
X168340000Y-125000000D02*
X169266000Y-125926000D01*
X155891975Y-106500000D02*
X160000000Y-106500000D01*
X163760000Y-102740000D02*
X163760000Y-101500000D01*
X167821562Y-132308000D02*
X150390438Y-132308000D01*
X169266000Y-125926000D02*
X169266000Y-130863562D01*
X150390438Y-132308000D02*
X148946000Y-130863562D01*
X148946000Y-113445975D02*
X155891975Y-106500000D01*
%TO.N,A2*%
X170374000Y-120966405D02*
X170374000Y-116126000D01*
X169344091Y-121996314D02*
X170374000Y-120966405D01*
X169000000Y-121996314D02*
X167414000Y-123582314D01*
X170374000Y-116126000D02*
X171500000Y-115000000D01*
X167414000Y-123582314D02*
X167414000Y-127414000D01*
X171500000Y-115000000D02*
X171500000Y-114500000D01*
X167414000Y-127414000D02*
X167500000Y-127500000D01*
X169000000Y-121996314D02*
X169344091Y-121996314D01*
%TO.N,A11*%
X152000000Y-127000000D02*
X152000000Y-123862190D01*
X156167595Y-107500000D02*
X165500000Y-107500000D01*
X159106000Y-129791810D02*
X159106000Y-130863562D01*
X156566000Y-129296438D02*
X156023562Y-128754000D01*
X154000000Y-129000000D02*
X152000000Y-127000000D01*
X160397810Y-128500000D02*
X159106000Y-129791810D01*
X155246000Y-128754000D02*
X155000000Y-129000000D01*
X158563562Y-131406000D02*
X157796438Y-131406000D01*
X168840000Y-104160000D02*
X168840000Y-101500000D01*
X159106000Y-130863562D02*
X158563562Y-131406000D01*
X156023562Y-128754000D02*
X155246000Y-128754000D01*
X162300000Y-128500000D02*
X160397810Y-128500000D01*
X155000000Y-129000000D02*
X154000000Y-129000000D01*
X156566000Y-130175562D02*
X156566000Y-129296438D01*
X151126000Y-122988190D02*
X151126000Y-112541595D01*
X165500000Y-107500000D02*
X168840000Y-104160000D01*
X165800000Y-125000000D02*
X162300000Y-128500000D01*
X157796438Y-131406000D02*
X156566000Y-130175562D01*
X152000000Y-123862190D02*
X151126000Y-122988190D01*
X151126000Y-112541595D02*
X156167595Y-107500000D01*
%TO.N,A5*%
X162754000Y-121954000D02*
X162754000Y-114006000D01*
X161174000Y-126326000D02*
X162334000Y-125166000D01*
X158180000Y-125000000D02*
X159506000Y-126326000D01*
X162334000Y-125166000D02*
X162334000Y-122374000D01*
X162754000Y-114006000D02*
X163880000Y-112880000D01*
X159506000Y-126326000D02*
X161174000Y-126326000D01*
X162334000Y-122374000D02*
X162754000Y-121954000D01*
%TO.N,D7*%
X192500000Y-118717810D02*
X192500000Y-113000000D01*
X193626000Y-103006000D02*
X192500000Y-101880000D01*
X193626000Y-111874000D02*
X193626000Y-103006000D01*
X193891095Y-122500000D02*
X193891095Y-120108905D01*
X184525000Y-135475000D02*
X138175000Y-135475000D01*
X185510847Y-134489153D02*
X184525000Y-135475000D01*
X192500000Y-113000000D02*
X193626000Y-111874000D01*
X138175000Y-135475000D02*
X132780000Y-130080000D01*
X193891095Y-120108905D02*
X192500000Y-118717810D01*
X194927761Y-134428761D02*
X194867369Y-134489153D01*
X194867369Y-134489153D02*
X185510847Y-134489153D01*
%TO.N,A9*%
X156547595Y-111000000D02*
X172500000Y-111000000D01*
X163260000Y-125000000D02*
X161483000Y-126777000D01*
X172794000Y-110706000D02*
X172794000Y-102626000D01*
X154683000Y-125752562D02*
X154683000Y-112864595D01*
X155707438Y-126777000D02*
X154683000Y-125752562D01*
X154683000Y-112864595D02*
X156547595Y-111000000D01*
X161483000Y-126777000D02*
X155707438Y-126777000D01*
X172794000Y-102626000D02*
X173920000Y-101500000D01*
X172500000Y-111000000D02*
X172794000Y-110706000D01*
%TO.N,D5*%
X198706000Y-109966405D02*
X198706000Y-103006000D01*
X198706000Y-103006000D02*
X197580000Y-101880000D01*
X197580000Y-113000000D02*
X197580000Y-111092405D01*
X197580000Y-111092405D02*
X198706000Y-109966405D01*
%TO.N,{slash}MREQ*%
X116444159Y-116436019D02*
X111436019Y-116436019D01*
X91680000Y-119162970D02*
X94406951Y-116436019D01*
X126500000Y-120000000D02*
X124951000Y-118451000D01*
X94406951Y-116436019D02*
X111436019Y-116436019D01*
X118459140Y-118451000D02*
X116444159Y-116436019D01*
X91680000Y-120780000D02*
X91680000Y-119162970D01*
X124951000Y-118451000D02*
X118459140Y-118451000D01*
X126500000Y-122500000D02*
X126500000Y-120000000D01*
%TO.N,A10*%
X154500000Y-128000000D02*
X154232000Y-127732000D01*
X170000000Y-109552405D02*
X170000000Y-102880000D01*
X154000000Y-112909785D02*
X156663785Y-110246000D01*
X169306405Y-110246000D02*
X170000000Y-109552405D01*
X154232000Y-122732000D02*
X154000000Y-122500000D01*
X170000000Y-102880000D02*
X171380000Y-101500000D01*
X154232000Y-127732000D02*
X154232000Y-122732000D01*
X156663785Y-110246000D02*
X169306405Y-110246000D01*
X154000000Y-122500000D02*
X154000000Y-112909785D01*
%TO.N,A8*%
X175046000Y-110454000D02*
X175046000Y-102914000D01*
X171287595Y-111500000D02*
X172000000Y-111500000D01*
X172000000Y-111500000D02*
X174000000Y-111500000D01*
X167834000Y-122285595D02*
X167834000Y-115666000D01*
X175046000Y-102914000D02*
X176460000Y-101500000D01*
X167834000Y-115666000D02*
X170374000Y-113126000D01*
X174000000Y-111500000D02*
X175046000Y-110454000D01*
X163260000Y-130080000D02*
X165840000Y-127500000D01*
X166726000Y-123393595D02*
X167834000Y-122285595D01*
X166726000Y-126614000D02*
X166726000Y-123393595D01*
X170374000Y-113126000D02*
X170374000Y-112413595D01*
X165840000Y-127500000D02*
X166726000Y-126614000D01*
X170374000Y-112413595D02*
X171287595Y-111500000D01*
%TO.N,A15*%
X146406000Y-131616000D02*
X146406000Y-121094000D01*
X171806000Y-130863562D02*
X169459562Y-133210000D01*
X146406000Y-114594000D02*
X146406000Y-121094000D01*
X157000000Y-104000000D02*
X146406000Y-114594000D01*
X157000000Y-103180000D02*
X157000000Y-104000000D01*
X158680000Y-101500000D02*
X157000000Y-103180000D01*
X170880000Y-125000000D02*
X171806000Y-125926000D01*
X148000000Y-133210000D02*
X146406000Y-131616000D01*
X169459562Y-133210000D02*
X148000000Y-133210000D01*
X171806000Y-125926000D02*
X171806000Y-130863562D01*
%TO.N,A7*%
X159931370Y-112880000D02*
X160126000Y-113074630D01*
X160126000Y-124406000D02*
X160720000Y-125000000D01*
X158800000Y-112880000D02*
X159931370Y-112880000D01*
X160126000Y-113074630D02*
X160126000Y-124406000D01*
%TO.N,D2*%
X140182438Y-134112000D02*
X136934000Y-130863562D01*
X178717562Y-134112000D02*
X140182438Y-134112000D01*
X202537000Y-125577000D02*
X200813190Y-125577000D01*
X192373583Y-123149203D02*
X183850797Y-123149203D01*
X205200000Y-113000000D02*
X205200000Y-111092405D01*
X136934000Y-130863562D02*
X136934000Y-125926000D01*
X206326000Y-109966405D02*
X206326000Y-103006000D01*
X205200000Y-113000000D02*
X206614000Y-114414000D01*
X206614000Y-121500000D02*
X202537000Y-125577000D01*
X200207095Y-124970905D02*
X194195285Y-124970905D01*
X136934000Y-125926000D02*
X137860000Y-125000000D01*
X200813190Y-125577000D02*
X200207095Y-124970905D01*
X206326000Y-103006000D02*
X205200000Y-101880000D01*
X182414781Y-124585219D02*
X182414781Y-130414781D01*
X206614000Y-114414000D02*
X206614000Y-121500000D01*
X182414781Y-130414781D02*
X178717562Y-134112000D01*
X194195285Y-124970905D02*
X192373583Y-123149203D01*
X205200000Y-111092405D02*
X206326000Y-109966405D01*
X183850797Y-123149203D02*
X182414781Y-124585219D01*
%TO.N,D4*%
X194374000Y-123126000D02*
X195754000Y-121746000D01*
X179426000Y-125783562D02*
X179426000Y-123074000D01*
X135320000Y-127320000D02*
X135500000Y-127500000D01*
X201500000Y-103260000D02*
X200120000Y-101880000D01*
X200120000Y-111092405D02*
X201500000Y-109712405D01*
X193626000Y-123126000D02*
X194374000Y-123126000D01*
X192747203Y-122247203D02*
X193626000Y-123126000D01*
X201000000Y-121746000D02*
X201246000Y-121500000D01*
X175246000Y-128754000D02*
X176455562Y-128754000D01*
X135320000Y-125000000D02*
X135320000Y-127320000D01*
X179426000Y-123074000D02*
X180252797Y-122247203D01*
X201246000Y-120153595D02*
X200120000Y-119027595D01*
X174346000Y-129654000D02*
X175246000Y-128754000D01*
X176455562Y-128754000D02*
X179426000Y-125783562D01*
X201246000Y-121500000D02*
X201246000Y-120153595D01*
X195754000Y-121746000D02*
X201000000Y-121746000D01*
X200120000Y-119027595D02*
X200120000Y-113000000D01*
X201500000Y-109712405D02*
X201500000Y-103260000D01*
X173000000Y-132500000D02*
X174346000Y-131154000D01*
X200120000Y-113000000D02*
X200120000Y-111092405D01*
X174346000Y-131154000D02*
X174346000Y-129654000D01*
X180252797Y-122247203D02*
X192747203Y-122247203D01*
%TO.N,A3*%
X159500000Y-114875000D02*
X158625000Y-114875000D01*
X158625000Y-114875000D02*
X157386000Y-116114000D01*
X157386000Y-123254000D02*
X155640000Y-125000000D01*
X157386000Y-116114000D02*
X157386000Y-123254000D01*
%TO.N,A4*%
X166420000Y-112880000D02*
X165294000Y-114006000D01*
X160760000Y-127500000D02*
X158180000Y-130080000D01*
X165294000Y-121954000D02*
X164596438Y-122651562D01*
X165294000Y-114006000D02*
X165294000Y-121954000D01*
X162469562Y-127500000D02*
X160760000Y-127500000D01*
X164596438Y-122651562D02*
X164596438Y-125373124D01*
X164596438Y-125373124D02*
X162469562Y-127500000D01*
%TO.N,D1*%
X138243562Y-123674000D02*
X137476438Y-123674000D01*
X209000000Y-123000000D02*
X209000000Y-114260000D01*
X138786000Y-128466000D02*
X138786000Y-124216438D01*
X136483000Y-124667438D02*
X136483000Y-131050372D01*
X201045000Y-130955000D02*
X209000000Y-123000000D01*
X138786000Y-124216438D02*
X138243562Y-123674000D01*
X197000000Y-133049000D02*
X199094000Y-130955000D01*
X209000000Y-111740000D02*
X209000000Y-103140000D01*
X209000000Y-114260000D02*
X207740000Y-113000000D01*
X209000000Y-103140000D02*
X207740000Y-101880000D01*
X139995628Y-134563000D02*
X183799190Y-134563000D01*
X184813190Y-133549000D02*
X187313190Y-133549000D01*
X183799190Y-134563000D02*
X184813190Y-133549000D01*
X187813190Y-133049000D02*
X197000000Y-133049000D01*
X187313190Y-133549000D02*
X187813190Y-133049000D01*
X137476438Y-123674000D02*
X136483000Y-124667438D01*
X199094000Y-130955000D02*
X201045000Y-130955000D01*
X140400000Y-130080000D02*
X138786000Y-128466000D01*
X136483000Y-131050372D02*
X139995628Y-134563000D01*
X207740000Y-113000000D02*
X209000000Y-111740000D01*
%TO.N,A6*%
X151500000Y-124000000D02*
X150500000Y-123000000D01*
X150500000Y-123000000D02*
X150500000Y-114000000D01*
X151500000Y-127000000D02*
X151500000Y-124000000D01*
X151500000Y-127000000D02*
X150500000Y-128000000D01*
%TO.N,D6*%
X196166000Y-103006000D02*
X195040000Y-101880000D01*
X195040000Y-113000000D02*
X195040000Y-111092405D01*
X196166000Y-109966405D02*
X196166000Y-103006000D01*
X195040000Y-111092405D02*
X196166000Y-109966405D01*
%TO.N,A14*%
X147000000Y-131259000D02*
X147000000Y-114754165D01*
X158500000Y-106000000D02*
X161220000Y-103280000D01*
X170880000Y-130080000D02*
X168201000Y-132759000D01*
X168201000Y-132759000D02*
X148500000Y-132759000D01*
X147000000Y-114754165D02*
X155754165Y-106000000D01*
X148500000Y-132759000D02*
X147000000Y-131259000D01*
X161220000Y-103280000D02*
X161220000Y-101500000D01*
X155754165Y-106000000D02*
X158500000Y-106000000D01*
%TO.N,{slash}ROMDIS*%
X99821595Y-132994000D02*
X94046000Y-132994000D01*
X127700000Y-130080000D02*
X127700000Y-131275000D01*
X127700000Y-131275000D02*
X123500000Y-135475000D01*
X94046000Y-132994000D02*
X92920000Y-134120000D01*
X102302595Y-135475000D02*
X99821595Y-132994000D01*
X123500000Y-135475000D02*
X102302595Y-135475000D01*
%TO.N,D3*%
X137860000Y-130080000D02*
X141441000Y-133661000D01*
X203786000Y-103006000D02*
X202660000Y-101880000D01*
X180000000Y-126870438D02*
X180000000Y-123500000D01*
X203786000Y-120153595D02*
X202660000Y-119027595D01*
X201000000Y-125126000D02*
X201759298Y-125126000D01*
X203786000Y-123099298D02*
X203786000Y-120153595D01*
X194382095Y-124519905D02*
X200393905Y-124519905D01*
X180801797Y-122698203D02*
X192560393Y-122698203D01*
X202660000Y-111092405D02*
X203786000Y-109966405D01*
X192560393Y-122698203D02*
X194382095Y-124519905D01*
X202660000Y-119027595D02*
X202660000Y-113000000D01*
X200393905Y-124519905D02*
X201000000Y-125126000D01*
X202660000Y-113000000D02*
X202660000Y-111092405D01*
X177574000Y-130175562D02*
X177574000Y-129296438D01*
X203786000Y-109966405D02*
X203786000Y-103006000D01*
X141441000Y-133661000D02*
X174088562Y-133661000D01*
X180000000Y-123500000D02*
X180801797Y-122698203D01*
X177574000Y-129296438D02*
X180000000Y-126870438D01*
X201759298Y-125126000D02*
X203786000Y-123099298D01*
X174088562Y-133661000D02*
X177574000Y-130175562D01*
%TO.N,A12*%
X150627438Y-131857000D02*
X149500000Y-130729562D01*
X168340000Y-130080000D02*
X166563000Y-131857000D01*
X149500000Y-113529785D02*
X151514893Y-111514892D01*
X151500000Y-111529785D02*
X156029785Y-107000000D01*
X156029785Y-107000000D02*
X160800000Y-107000000D01*
X149500000Y-130729562D02*
X149500000Y-120500000D01*
X166563000Y-131857000D02*
X150627438Y-131857000D01*
X149500000Y-120500000D02*
X149500000Y-113529785D01*
X160800000Y-107000000D02*
X166300000Y-101500000D01*
%TO.N,A1*%
X153100000Y-125000000D02*
X153000000Y-124900000D01*
X152625000Y-115125000D02*
X152500000Y-115000000D01*
X153100000Y-125000000D02*
X152625000Y-124525000D01*
X152625000Y-124525000D02*
X152625000Y-115125000D01*
%TO.N,D0*%
X185000000Y-134000000D02*
X187500000Y-134000000D01*
X211406000Y-114126000D02*
X210280000Y-113000000D01*
X134394000Y-124216438D02*
X134394000Y-130863562D01*
X211406000Y-123254405D02*
X211406000Y-114126000D01*
X135387438Y-123223000D02*
X134394000Y-124216438D01*
X211406000Y-111874000D02*
X211406000Y-103006000D01*
X210280000Y-113000000D02*
X211406000Y-111874000D01*
X138623000Y-123223000D02*
X135387438Y-123223000D01*
X183986000Y-135014000D02*
X185000000Y-134000000D01*
X140400000Y-125000000D02*
X138623000Y-123223000D01*
X138544438Y-135014000D02*
X183986000Y-135014000D01*
X203330202Y-131330202D02*
X211406000Y-123254405D01*
X134394000Y-130863562D02*
X138544438Y-135014000D01*
X188000000Y-133500000D02*
X201160405Y-133500000D01*
X201160405Y-133500000D02*
X203330202Y-131330202D01*
X187500000Y-134000000D02*
X188000000Y-133500000D01*
X211406000Y-103006000D02*
X210280000Y-101880000D01*
%TO.N,{slash}P_RD_DE*%
X210000000Y-114622190D02*
X210000000Y-116374000D01*
X210280000Y-109500000D02*
X210280000Y-111407595D01*
X209154000Y-112533595D02*
X209154000Y-113776190D01*
X209154000Y-113776190D02*
X210000000Y-114622190D01*
X210280000Y-111407595D02*
X209154000Y-112533595D01*
%TO.N,{slash}P_AE*%
X138007000Y-116993000D02*
X120493000Y-116993000D01*
X94785000Y-127626000D02*
X95460000Y-126951000D01*
X120493000Y-116993000D02*
X116000000Y-112500000D01*
X139000000Y-116000000D02*
X138007000Y-116993000D01*
X80700050Y-119649000D02*
X80389000Y-119960050D01*
X84351000Y-119649000D02*
X80700050Y-119649000D01*
X90958000Y-109042000D02*
X87000000Y-113000000D01*
X110958000Y-112500000D02*
X107500000Y-109042000D01*
X80389000Y-125721405D02*
X82293595Y-127626000D01*
X80389000Y-119960050D02*
X80389000Y-125721405D01*
X87000000Y-117000000D02*
X84351000Y-119649000D01*
X116000000Y-112500000D02*
X110958000Y-112500000D01*
X87000000Y-113000000D02*
X87000000Y-117000000D01*
X107500000Y-109042000D02*
X90958000Y-109042000D01*
X82293595Y-127626000D02*
X94785000Y-127626000D01*
%TO.N,Net-(A1-GPIO22)*%
X96760000Y-120780000D02*
X96760000Y-122740000D01*
%TD*%
M02*
