M48
; DRILL file {KiCad 9.0.1} date 2025-08-04T14:54:05+0300
; FORMAT={-:-/ absolute / inch / decimal}
; #@! TF.CreationDate,2025-08-04T14:54:05+03:00
; #@! TF.GenerationSoftware,Kicad,Pcbnew,9.0.1
; #@! TF.FileFunction,Plated,1,2,PTH
FMAT,2
INCH
; #@! TA.AperFunction,Plated,PTH,ViaDrill
T1C0.0118
; #@! TA.AperFunction,Plated,PTH,ViaDrill
T2C0.0157
; #@! TA.AperFunction,Plated,PTH,ComponentDrill
T3C0.0315
; #@! TA.AperFunction,Plated,PTH,ComponentDrill
T4C0.0394
; #@! TA.AperFunction,Plated,PTH,ComponentDrill
T5C0.0512
%
G90
G05
T1
X3.1102Y-4.9016
X3.5039Y-4.1929
X3.5236Y-4.5669
X3.9173Y-4.1142
X4.5669Y-5.2262
X4.6664Y-5.2549
X4.8819Y-5.2165
X4.9803Y-4.8228
X5.3346Y-5.0197
X5.4724Y-4.5669
X5.8858Y-4.0945
X5.8858Y-4.1339
X5.8858Y-4.1732
X5.8858Y-4.2126
X5.8858Y-4.252
X5.8858Y-4.2913
X5.8858Y-4.3307
X5.9252Y-4.4882
X5.9252Y-5.0394
X6.0039Y-4.5276
X6.0827Y-5.0394
X6.2795Y-4.5226
X6.4961Y-4.1929
X6.5945Y-3.9764
X6.5945Y-5.0197
X6.7126Y-5.0591
X6.752Y-4.5079
X6.7717Y-4.1732
X6.811Y-5.2165
X6.8307Y-5.0394
X7.1457Y-4.1339
X7.4028Y-4.7847
X7.5787Y-4.0945
X7.6335Y-4.8228
X7.6743Y-5.2925
X7.6772Y-4.0748
X7.6772Y-4.1142
X7.7559Y-4.8228
X7.7787Y-4.137
X7.874Y-4.1732
X7.9331Y-4.9016
X7.9787Y-4.1992
X8.0709Y-4.0748
X8.189Y-3.9567
X8.2677Y-4.5817
T2
X6.9044Y-4.385
T3
X3.2583Y-4.9803
X3.2583Y-5.2803
X3.3583Y-4.9803
X3.3583Y-5.2803
X3.4583Y-4.9803
X3.4583Y-5.2803
X3.5583Y-4.9803
X3.5583Y-5.2803
X3.6583Y-4.9803
X3.6583Y-5.2803
X3.7583Y-4.9803
X3.7583Y-5.2803
X3.8583Y-4.9803
X3.8583Y-5.2803
X4.0323Y-5.1772
X4.0323Y-5.2756
X4.7276Y-4.9213
X4.7276Y-5.1213
X4.8276Y-4.9213
X4.8276Y-5.1213
X4.9276Y-4.9213
X4.9276Y-5.1213
X5.0276Y-4.9213
X5.0276Y-5.1213
X5.1276Y-4.9213
X5.1276Y-5.1213
X5.2276Y-4.9213
X5.2276Y-5.1213
X5.3276Y-4.9213
X5.3276Y-5.1213
X5.3815Y-4.4094
X5.4276Y-4.9213
X5.4276Y-5.1213
X5.5276Y-4.9213
X5.5276Y-5.1213
X5.6276Y-4.9213
X5.6276Y-5.1213
X5.6815Y-4.4094
X5.7276Y-4.9213
X5.7276Y-5.1213
X5.8276Y-4.9213
X5.8276Y-5.1213
X5.9276Y-4.9213
X5.9276Y-5.1213
X6.0276Y-4.9213
X6.0276Y-5.1213
X6.1276Y-4.9213
X6.1276Y-5.1213
X6.1472Y-3.9961
X6.1472Y-4.2961
X6.152Y-4.4441
X6.152Y-4.7441
X6.2276Y-4.9213
X6.2276Y-5.1213
X6.2472Y-3.9961
X6.2472Y-4.2961
X6.252Y-4.4441
X6.252Y-4.7441
X6.3276Y-4.9213
X6.3276Y-5.1213
X6.3472Y-3.9961
X6.3472Y-4.2961
X6.352Y-4.4441
X6.352Y-4.7441
X6.4276Y-4.9213
X6.4276Y-5.1213
X6.4472Y-3.9961
X6.4472Y-4.2961
X6.452Y-4.4441
X6.452Y-4.7441
X6.5276Y-4.9213
X6.5276Y-5.1213
X6.5472Y-3.9961
X6.5472Y-4.2961
X6.552Y-4.4441
X6.552Y-4.7441
X6.6276Y-4.9213
X6.6276Y-5.1213
X6.6472Y-3.9961
X6.6472Y-4.2961
X6.652Y-4.4441
X6.652Y-4.7441
X6.7276Y-4.9213
X6.7276Y-5.1213
X6.7472Y-3.9961
X6.7472Y-4.2961
X6.752Y-4.4441
X6.752Y-4.7441
X6.8276Y-4.9213
X6.8276Y-5.1213
X6.8472Y-3.9961
X6.8472Y-4.2961
X6.852Y-4.4441
X6.852Y-4.7441
X6.9276Y-4.9213
X6.9276Y-5.1213
X6.9472Y-3.9961
X6.9472Y-4.2961
X6.952Y-4.4441
X6.952Y-4.7441
X7.0276Y-4.9213
X7.0276Y-5.1213
X7.0472Y-3.9961
X7.0472Y-4.2961
X7.052Y-4.4441
X7.052Y-4.7441
X7.1276Y-4.9213
X7.1276Y-5.1213
X7.2441Y-4.1929
X7.2441Y-4.2913
X7.2441Y-4.6457
X7.2441Y-4.7441
X7.4787Y-4.011
X7.4787Y-4.311
X7.4787Y-4.4488
X7.4787Y-4.7488
X7.5787Y-4.011
X7.5787Y-4.311
X7.5787Y-4.4488
X7.5787Y-4.7488
X7.6787Y-4.011
X7.6787Y-4.311
X7.6787Y-4.4488
X7.6787Y-4.7488
X7.7787Y-4.011
X7.7787Y-4.311
X7.7787Y-4.4488
X7.7787Y-4.7488
X7.8787Y-4.011
X7.8787Y-4.311
X7.8787Y-4.4488
X7.8787Y-4.7488
X7.9787Y-4.011
X7.9787Y-4.311
X7.9787Y-4.4488
X7.9787Y-4.7488
X8.0787Y-4.011
X8.0787Y-4.311
X8.0787Y-4.4488
X8.0787Y-4.7488
X8.1787Y-4.011
X8.1787Y-4.311
X8.1787Y-4.4488
X8.1787Y-4.7488
X8.2787Y-4.011
X8.2787Y-4.311
X8.2787Y-4.4488
X8.2787Y-4.7488
X8.3787Y-4.011
X8.3787Y-4.311
X8.3787Y-4.4488
X8.3787Y-4.7488
X8.563Y-4.2126
X8.563Y-4.311
X8.563Y-4.6457
X8.563Y-4.7441
T4
X3.0094Y-4.0551
X3.0094Y-4.7551
X3.1094Y-4.0551
X3.1094Y-4.7551
X3.2094Y-4.0551
X3.2094Y-4.7551
X3.3094Y-4.0551
X3.3094Y-4.7551
X3.4094Y-4.0551
X3.4094Y-4.7551
X3.5094Y-4.0551
X3.5094Y-4.7551
X3.6094Y-4.0551
X3.6094Y-4.7551
X3.7094Y-4.0551
X3.7094Y-4.7551
X3.8094Y-4.0551
X3.8094Y-4.7551
X3.9094Y-4.0551
X3.9094Y-4.7551
X4.0094Y-4.0551
X4.0094Y-4.7551
X4.1094Y-4.0551
X4.1094Y-4.7551
X4.2094Y-4.0551
X4.2094Y-4.7551
X4.3094Y-4.0551
X4.3094Y-4.7551
X4.4094Y-4.0551
X4.4094Y-4.7551
X4.5094Y-4.0551
X4.5094Y-4.7551
X4.6094Y-4.0551
X4.6094Y-4.7551
X4.7094Y-4.0551
X4.7094Y-4.7551
X4.8094Y-4.0551
X4.8094Y-4.7551
X4.9094Y-4.0551
X4.9094Y-4.7551
T5
X5.4035Y-4.0748
X5.6594Y-4.0748
M30
