%TF.GenerationSoftware,KiCad,Pcbnew,9.0.1*%
%TF.CreationDate,2026-02-12T20:49:34+02:00*%
%TF.ProjectId,SVI-3x8-PicoExpander-SuperExpander-adapter,5356492d-3378-4382-9d50-69636f457870,rev?*%
%TF.SameCoordinates,Original*%
%TF.FileFunction,Soldermask,Bot*%
%TF.FilePolarity,Negative*%
%FSLAX46Y46*%
G04 Gerber Fmt 4.6, Leading zero omitted, Abs format (unit mm)*
G04 Created by KiCad (PCBNEW 9.0.1) date 2026-02-12 20:49:34*
%MOMM*%
%LPD*%
G01*
G04 APERTURE LIST*
%ADD10R,1.500000X11.000000*%
G04 APERTURE END LIST*
D10*
%TO.C,J1*%
X173400000Y-86000000D03*
X170860000Y-86000000D03*
X168320000Y-86000000D03*
X165780000Y-86000000D03*
X163240000Y-86000000D03*
X160700000Y-86000000D03*
X158160000Y-86000000D03*
X155620000Y-86000000D03*
X153080000Y-86000000D03*
X150540000Y-86000000D03*
X148000000Y-86000000D03*
X145460000Y-86000000D03*
X142920000Y-86000000D03*
X140380000Y-86000000D03*
X137840000Y-86000000D03*
X135300000Y-86000000D03*
X132760000Y-86000000D03*
X130220000Y-86000000D03*
X127680000Y-86000000D03*
X125140000Y-86000000D03*
X122600000Y-86000000D03*
X120060000Y-86000000D03*
X117520000Y-86000000D03*
X114980000Y-86000000D03*
X112440000Y-86000000D03*
%TD*%
%TO.C,J1*%
X173380000Y-109000000D03*
X170840000Y-109000000D03*
X168300000Y-109000000D03*
X165760000Y-109000000D03*
X163220000Y-109000000D03*
X160680000Y-109000000D03*
X158140000Y-109000000D03*
X155600000Y-109000000D03*
X153060000Y-109000000D03*
X150520000Y-109000000D03*
X147980000Y-109000000D03*
X145440000Y-109000000D03*
X142900000Y-109000000D03*
X140360000Y-109000000D03*
X137820000Y-109000000D03*
X135280000Y-109000000D03*
X132740000Y-109000000D03*
X130200000Y-109000000D03*
X127660000Y-109000000D03*
X125120000Y-109000000D03*
X122580000Y-109000000D03*
X120040000Y-109000000D03*
X117500000Y-109000000D03*
X114960000Y-109000000D03*
X112420000Y-109000000D03*
%TD*%
M02*
