%TF.GenerationSoftware,KiCad,Pcbnew,9.0.1*%
%TF.CreationDate,2026-02-12T20:49:34+02:00*%
%TF.ProjectId,SVI-3x8-PicoExpander-SuperExpander-adapter,5356492d-3378-4382-9d50-69636f457870,rev?*%
%TF.SameCoordinates,Original*%
%TF.FileFunction,Copper,L1,Top*%
%TF.FilePolarity,Positive*%
%FSLAX46Y46*%
G04 Gerber Fmt 4.6, Leading zero omitted, Abs format (unit mm)*
G04 Created by KiCad (PCBNEW 9.0.1) date 2026-02-12 20:49:34*
%MOMM*%
%LPD*%
G01*
G04 APERTURE LIST*
%TA.AperFunction,ConnectorPad*%
%ADD10R,1.500000X11.000000*%
%TD*%
%TA.AperFunction,Conductor*%
%ADD11C,1.500000*%
%TD*%
G04 APERTURE END LIST*
D10*
%TO.P,J1,1*%
%TO.N,1*%
X173400000Y-86000000D03*
%TO.P,J1,3*%
%TO.N,3*%
X170860000Y-86000000D03*
%TO.P,J1,5*%
%TO.N,5*%
X168320000Y-86000000D03*
%TO.P,J1,7*%
%TO.N,7*%
X165780000Y-86000000D03*
%TO.P,J1,9*%
%TO.N,9*%
X163240000Y-86000000D03*
%TO.P,J1,11*%
%TO.N,11*%
X160700000Y-86000000D03*
%TO.P,J1,13*%
%TO.N,13*%
X158160000Y-86000000D03*
%TO.P,J1,15*%
%TO.N,15*%
X155620000Y-86000000D03*
%TO.P,J1,17*%
%TO.N,17*%
X153080000Y-86000000D03*
%TO.P,J1,19*%
%TO.N,19*%
X150540000Y-86000000D03*
%TO.P,J1,21*%
%TO.N,21*%
X148000000Y-86000000D03*
%TO.P,J1,23*%
%TO.N,23*%
X145460000Y-86000000D03*
%TO.P,J1,25*%
%TO.N,25*%
X142920000Y-86000000D03*
%TO.P,J1,27*%
%TO.N,27*%
X140380000Y-86000000D03*
%TO.P,J1,29*%
%TO.N,29*%
X137840000Y-86000000D03*
%TO.P,J1,31*%
%TO.N,31*%
X135300000Y-86000000D03*
%TO.P,J1,33*%
%TO.N,33*%
X132760000Y-86000000D03*
%TO.P,J1,35*%
%TO.N,35*%
X130220000Y-86000000D03*
%TO.P,J1,37*%
%TO.N,37*%
X127680000Y-86000000D03*
%TO.P,J1,39*%
%TO.N,39*%
X125140000Y-86000000D03*
%TO.P,J1,41*%
%TO.N,41*%
X122600000Y-86000000D03*
%TO.P,J1,43*%
%TO.N,43*%
X120060000Y-86000000D03*
%TO.P,J1,45*%
%TO.N,45*%
X117520000Y-86000000D03*
%TO.P,J1,47*%
%TO.N,47*%
X114980000Y-86000000D03*
%TO.P,J1,49*%
%TO.N,49*%
X112440000Y-86000000D03*
%TD*%
%TO.P,J1,1*%
%TO.N,1*%
X173380000Y-109000000D03*
%TO.P,J1,3*%
%TO.N,3*%
X170840000Y-109000000D03*
%TO.P,J1,5*%
%TO.N,5*%
X168300000Y-109000000D03*
%TO.P,J1,7*%
%TO.N,7*%
X165760000Y-109000000D03*
%TO.P,J1,9*%
%TO.N,9*%
X163220000Y-109000000D03*
%TO.P,J1,11*%
%TO.N,11*%
X160680000Y-109000000D03*
%TO.P,J1,13*%
%TO.N,13*%
X158140000Y-109000000D03*
%TO.P,J1,15*%
%TO.N,15*%
X155600000Y-109000000D03*
%TO.P,J1,17*%
%TO.N,17*%
X153060000Y-109000000D03*
%TO.P,J1,19*%
%TO.N,19*%
X150520000Y-109000000D03*
%TO.P,J1,21*%
%TO.N,21*%
X147980000Y-109000000D03*
%TO.P,J1,23*%
%TO.N,23*%
X145440000Y-109000000D03*
%TO.P,J1,25*%
%TO.N,25*%
X142900000Y-109000000D03*
%TO.P,J1,27*%
%TO.N,27*%
X140360000Y-109000000D03*
%TO.P,J1,29*%
%TO.N,29*%
X137820000Y-109000000D03*
%TO.P,J1,31*%
%TO.N,31*%
X135280000Y-109000000D03*
%TO.P,J1,33*%
%TO.N,33*%
X132740000Y-109000000D03*
%TO.P,J1,35*%
%TO.N,35*%
X130200000Y-109000000D03*
%TO.P,J1,37*%
%TO.N,37*%
X127660000Y-109000000D03*
%TO.P,J1,39*%
%TO.N,39*%
X125120000Y-109000000D03*
%TO.P,J1,41*%
%TO.N,41*%
X122580000Y-109000000D03*
%TO.P,J1,43*%
%TO.N,43*%
X120040000Y-109000000D03*
%TO.P,J1,45*%
%TO.N,45*%
X117500000Y-109000000D03*
%TO.P,J1,47*%
%TO.N,47*%
X114960000Y-109000000D03*
%TO.P,J1,49*%
%TO.N,49*%
X112420000Y-109000000D03*
%TD*%
D11*
%TO.N,21*%
X148000000Y-108980000D02*
X147980000Y-109000000D01*
%TO.N,13*%
X158160000Y-108980000D02*
X158140000Y-109000000D01*
%TO.N,19*%
X150520000Y-109000000D02*
X150520000Y-86020000D01*
%TO.N,43*%
X120060000Y-108980000D02*
X120040000Y-109000000D01*
%TO.N,37*%
X127660000Y-109000000D02*
X127660000Y-86020000D01*
%TO.N,41*%
X122580000Y-86020000D02*
X122600000Y-86000000D01*
%TO.N,33*%
X132740000Y-86020000D02*
X132760000Y-86000000D01*
%TO.N,27*%
X140360000Y-109000000D02*
X140360000Y-86020000D01*
%TO.N,33*%
X132740000Y-109000000D02*
X132740000Y-86020000D01*
%TO.N,35*%
X130200000Y-109000000D02*
X130200000Y-86020000D01*
%TO.N,25*%
X142900000Y-109000000D02*
X142900000Y-86020000D01*
%TO.N,3*%
X170840000Y-109000000D02*
X170840000Y-86020000D01*
%TO.N,29*%
X137820000Y-86020000D02*
X137840000Y-86000000D01*
%TO.N,25*%
X142900000Y-86020000D02*
X142920000Y-86000000D01*
%TO.N,31*%
X135280000Y-86020000D02*
X135300000Y-86000000D01*
%TO.N,47*%
X114980000Y-108980000D02*
X114960000Y-109000000D01*
%TO.N,7*%
X165780000Y-108980000D02*
X165760000Y-109000000D01*
%TO.N,21*%
X148000000Y-86000000D02*
X148000000Y-108980000D01*
%TO.N,13*%
X158160000Y-86000000D02*
X158160000Y-108980000D01*
%TO.N,5*%
X168300000Y-86020000D02*
X168320000Y-86000000D01*
%TO.N,37*%
X127660000Y-86020000D02*
X127680000Y-86000000D01*
%TO.N,9*%
X163220000Y-109000000D02*
X163220000Y-86020000D01*
%TO.N,29*%
X137820000Y-109000000D02*
X137820000Y-86020000D01*
%TO.N,7*%
X165780000Y-86000000D02*
X165780000Y-108980000D01*
%TO.N,3*%
X170840000Y-86020000D02*
X170860000Y-86000000D01*
%TO.N,15*%
X155600000Y-86020000D02*
X155620000Y-86000000D01*
%TO.N,1*%
X173400000Y-108980000D02*
X173380000Y-109000000D01*
X173400000Y-86000000D02*
X173400000Y-108980000D01*
%TO.N,39*%
X125120000Y-109000000D02*
X125120000Y-86020000D01*
X125120000Y-86020000D02*
X125140000Y-86000000D01*
%TO.N,31*%
X135280000Y-109000000D02*
X135280000Y-86020000D01*
%TO.N,9*%
X163220000Y-86020000D02*
X163240000Y-86000000D01*
%TO.N,15*%
X155600000Y-109000000D02*
X155600000Y-86020000D01*
%TO.N,49*%
X112420000Y-109000000D02*
X112420000Y-86020000D01*
%TO.N,19*%
X150520000Y-86020000D02*
X150540000Y-86000000D01*
%TO.N,41*%
X122580000Y-109000000D02*
X122580000Y-86020000D01*
%TO.N,23*%
X145440000Y-109000000D02*
X145440000Y-86020000D01*
%TO.N,17*%
X153080000Y-86000000D02*
X153080000Y-108980000D01*
X153080000Y-108980000D02*
X153060000Y-109000000D01*
%TO.N,5*%
X168300000Y-109000000D02*
X168300000Y-86020000D01*
%TO.N,47*%
X114980000Y-86000000D02*
X114980000Y-108980000D01*
%TO.N,49*%
X112420000Y-86020000D02*
X112440000Y-86000000D01*
%TO.N,35*%
X130200000Y-86020000D02*
X130220000Y-86000000D01*
%TO.N,45*%
X117500000Y-109000000D02*
X117500000Y-86020000D01*
%TO.N,43*%
X120060000Y-86000000D02*
X120060000Y-108980000D01*
%TO.N,11*%
X160680000Y-86020000D02*
X160700000Y-86000000D01*
X160680000Y-109000000D02*
X160680000Y-86020000D01*
%TO.N,27*%
X140360000Y-86020000D02*
X140380000Y-86000000D01*
%TO.N,23*%
X145440000Y-86020000D02*
X145460000Y-86000000D01*
%TO.N,45*%
X117500000Y-86020000D02*
X117520000Y-86000000D01*
%TD*%
M02*
